<?xml version="1.0" encoding="UTF-8" standalone="no"?>
<svg
   width="16"
   height="16"
   fill="currentColor"
   class="bi bi-search"
   viewBox="0 0 16 16"
   version="1.1"
   id="svg19"
   sodipodi:docname="search-grey.svg"
   inkscape:export-filename="C:\Users\KimHanSeok\Desktop\CS50\git\potatoCoding\Project-0\search\icons\search-grey.png"
   inkscape:export-xdpi="96"
   inkscape:export-ydpi="96"
   inkscape:version="1.1.1 (3bf5ae0d25, 2021-09-20)"
   xmlns:inkscape="http://www.inkscape.org/namespaces/inkscape"
   xmlns:sodipodi="http://sodipodi.sourceforge.net/DTD/sodipodi-0.dtd"
   xmlns="http://www.w3.org/2000/svg"
   xmlns:svg="http://www.w3.org/2000/svg">
  <defs
     id="defs23" />
  <sodipodi:namedview
     id="namedview21"
     pagecolor="#ffffff"
     bordercolor="#666666"
     borderopacity="1.0"
     inkscape:pageshadow="2"
     inkscape:pageopacity="0.0"
     inkscape:pagecheckerboard="0"
     showgrid="false"
     inkscape:zoom="32"
     inkscape:cx="4.203125"
     inkscape:cy="8.734375"
     inkscape:window-width="1920"
     inkscape:window-height="1000"
     inkscape:window-x="-11"
     inkscape:window-y="-11"
     inkscape:window-maximized="1"
     inkscape:current-layer="svg19" />
  <path
     d="M11.742 10.344a6.5 6.5 0 1 0-1.397 1.398h-.001c.03.04.062.078.098.115l3.85 3.85a1 1 0 0 0 1.415-1.414l-3.85-3.85a1.007 1.007 0 0 0-.115-.1zM12 6.5a5.5 5.5 0 1 1-11 0 5.5 5.5 0 0 1 11 0z"
     id="path17" />
  <path
     style="fill:#a0a0a0;stroke:none;stroke-width:0.03125"
     d="M 6.4363403,-6.7138687e-4 C 4.4524606,0.00200574 2.5072883,0.9857664 1.3204956,2.5743408 0.02962394,4.2334356 -0.34792539,6.5371634 0.31943059,8.5273737 0.76305587,9.9249415 1.7303839,11.132144 2.9401856,11.947022 c 1.0528253,0.676679 2.2925772,1.067206 3.5486422,1.048073 1.1919025,0.02875 2.3694362,-0.326302 3.3879691,-0.935896 0.1562321,-0.09026 0.3032181,-0.195241 0.4542581,-0.293696 1.346928,1.339009 2.671364,2.701422 4.043945,4.01416 0.492934,0.430842 1.362727,0.185908 1.565369,-0.434204 0.102128,-0.31527 0.09751,-0.699851 -0.158662,-0.944082 -0.854222,-0.956713 -1.796156,-1.831036 -2.692265,-2.74805 C 12.648841,11.212447 12.20824,10.771568 11.767639,10.330688 12.593491,9.1562128 13.062675,7.7185209 12.990701,6.2773609 12.964615,4.91273 12.454268,3.5672375 11.619263,2.4932861 10.536976,1.1156528 8.8908328,0.19470301 7.1430981,0.03169461 6.9083381,0.00806013 6.6722728,-0.00256321 6.4363403,-6.7138687e-4 Z M 6.5575562,1.0117798 c 1.8306128,0.00496 3.6214768,0.9974973 4.5817448,2.5584389 0.55377,0.8897425 0.886422,1.9376869 0.828542,2.992281 0.0392,1.228715 -0.445521,2.4406047 -1.204965,3.3925175 C 9.5027503,11.548161 7.3031753,12.320684 5.3242797,11.86145 3.5339922,11.486492 1.9948261,10.145456 1.363857,8.4306028 1.1105213,7.7876103 0.99677575,7.0964819 1.032244,6.4062503 1.0004239,5.1700528 1.4960672,3.9531762 2.2712913,3.003666 3.3060881,1.7363204 4.9212397,0.98500678 6.5575562,1.0117798 Z"
     id="path21602" />
</svg>
